<svg xmlns:dc="http://purl.org/dc/elements/1.1/" xmlns:cc="http://creativecommons.org/ns#" xmlns:rdf="http://www.w3.org/1999/02/22-rdf-syntax-ns#" xmlns:svg="http://www.w3.org/2000/svg" xmlns="http://www.w3.org/2000/svg" xmlns:sodipodi="http://sodipodi.sourceforge.net/DTD/sodipodi-0.dtd" xmlns:inkscape="http://www.inkscape.org/namespaces/inkscape" width="150" height="190" viewBox="0 0 39.6875 50.270835" version="1.1" id="svg926"><title id="title1519">Datasphera Logo</title><defs id="defs920"/><metadata id="metadata923"></metadata><g id="layer1"><g id="g1534"><path id="path833-8-5" style="fill:#2a41b7;fill-opacity:0.877698;stroke:none;stroke-width:0.0264582;stroke-opacity:1;" d="M 13.229167,23.812505 A 13.229167,11.906246 0 0 1 1.7723724,17.859382 13.229167,11.906246 0 0 1 1.7723723,5.9531354 13.229167,11.906246 0 0 1 13.229167,1.2397766e-5 V 11.906259 Z"/><path style="fill:#97abff;fill-opacity:1;stroke:none;stroke-width:0.0264582;" id="path833-9-1-0" d="M 13.229167,50.270836 A 13.229167,11.906246 0 0 1 1.7723724,44.317713 13.229167,11.906246 0 0 1 1.7723723,32.411467 13.229167,11.906246 0 0 1 13.229167,26.458344 V 38.36459 Z"/><path id="path1150-1-78-5" d="M 16.139583,26.722907 H 39.048752 L 16.139583,49.632058 Z" style="fill:#97abff;fill-opacity:1;stroke:#97abff;stroke-width:0.529166;stroke-opacity:1;"/><path style="fill:#2a41b7;fill-opacity:0.878431;stroke:none;stroke-width:0.529167;stroke-opacity:1;" d="M 15.875,23.812498 H 39.687499 L 15.875,1.934274e-6 Z" id="path1150-1-78-5-5"/></g></g></svg>